# xmcd
#
# Track frame offsets: 
#        150
#        11417
#        20710
#        31382
#        50237
#        62467
#        74382
#        83670
#        96237
#        110902
#        121812
#        142300
#        154730
#        166552
#        182610
#        196390
#        211600
#        227785
#        240860
#        260397
#        274567
#        284950
#        305362
#        321855
#
# Disc length: 4461 seconds
#
# Revision: 5
# Processed by: cddbd v1.5.2PL0 Copyright (c) Steve Scherf et al.
# Submitted via: ExactAudioCopyFreeDBPlugin 1.0
#
DISCID=52116b18
DTITLE=Elvis Presley - Great Country Songs
DYEAR=1996
DGENRE=Country
TTITLE0=I Forgot To Remember To Forget
TTITLE1=Blue Moon Of Kentucky
TTITLE2=Elvis Presley - The Jordanaires - When My Blue Moon Turns To Go
TTITLE2=ld Again
TTITLE3=Elvis Presley - The Jordanaires - Old Shep
TTITLE4=Elvis Presley - The Jordanaires - Your Cheatin' Heart (ALternat
TTITLE4=e take 9)
TTITLE5=Elvis Presley - The Jordanaires - (Now and Then There's) A Fool
TTITLE5=Such As I
TTITLE6=Just Call Me Lonesome (Alternate take 6)
TTITLE7=Elvis Presley - The Imperials Quartet - There Goes My Everythin
TTITLE7=g (Alternake 1)
TTITLE8=Kentucky Rain
TTITLE9=From a Jack To a King
TTITLE10=I'll Hold You in My Heart (Till I Can Hold You in My Arms)
TTITLE11=Elvis Presley - The Imperials Quartet - I Really Don't Want To
TTITLE11=Know
TTITLE12=It Keeps Right On A-Hurtin'
TTITLE13=Green, Green Grass Of Home (Alternate take 1)
TTITLE14=Fairytale (Alternate take 2)
TTITLE15=Gentle On My Mind
TTITLE16=Elvis Presley - The Jordanaires - The Imperials Quartet - Make 
TTITLE16=The World Go Away
TTITLE17=Elvis Presley - J.D. Summer and The Stamps - You Asked Me Too
TTITLE18=Elvis Presley - The Jordanaires - The Imperials Quartet - Funny
TTITLE18=How Time Slips Away
TTITLE19=Elvis Presley - The Imperials Quartet - Help Me Make It Throug
TTITLE19=h the Night (Alternate take 3)
TTITLE20=Susan When She Tried
TTITLE21=Elvis Presley - J.D. Summer and The Stamps - Kathy Westmoreland
TTITLE21=He'll Have To Go
TTITLE22=Elvis Presley - J.D. Summer and The Stamps - Always On My Mind
TTITLE23=Guitar Man (Remake)
EXTD=ECA/BMG Music. CD 07863 66880 2. Made in the EC. 24 great tracks.
EXTD=Featuring 5 previously unreleased performances.
EXTT0=
EXTT1=
EXTT2=
EXTT3=
EXTT4=
EXTT5=
EXTT6=
EXTT7=
EXTT8=
EXTT9=
EXTT10=
EXTT11=
EXTT12=
EXTT13=
EXTT14=
EXTT15=
EXTT16=
EXTT17=
EXTT18=
EXTT19=
EXTT20=
EXTT21=
EXTT22=
EXTT23=
PLAYORDER=
